<svg xmlns="http://www.w3.org/2000/svg" fill-rule="evenodd" clip-rule="evenodd" height="1024" width="1024"><path d="M106.557 843.09h23.947v-66.06h90.007V655.645h-90.833v-42.94h-23.946v42.94H17.376V777.03h89.181v66.06zm23.121-165.976h66.886v78.446h-66.886v-78.446zm-89.18 78.446v-78.446h66.06v78.446h-66.06zm234.512 80.924h205.612V620.137H275.01v216.347zm21.47-195.703H457.5V815.84H296.48V640.78z" fill="#0080CB"/><path d="M387.312 729.136h49.545v-20.643h-49.545v-29.727h53.674v-19.818H311.343v19.818h54.5v29.727h-49.545v20.643h49.544v47.068H308.04v20.644h137.074v-20.644h-57.802z" fill="#0080CB"/><path d="m418.69 774.552 17.341-14.037c-9.083-10.735-26.424-29.727-26.424-29.727l-16.515 12.386c14.864 15.69 25.598 31.378 25.598 31.378zm196.529-132.12-4.13-21.469c-18.991 6.606-83.4 13.212-83.4 13.212l3.303 21.47 29.727-4.955v32.204h-36.333v20.644h33.856c-2.477 8.258-14.038 42.939-37.985 75.969l16.515 18.166s14.038-21.47 23.947-43.764v90.832h22.295V741.522l22.296 22.296 14.863-17.341-37.984-32.204v-10.735h32.204v-20.644h-32.204v-33.03c14.863-3.303 33.03-7.431 33.03-7.431z" fill="#0080CB"/><path d="M694.49 729.136c1.652-3.303 3.303-7.432 4.955-10.735l-21.47-3.302c3.304-1.652 6.607-3.303 9.084-5.78 42.939-28.076 56.976-58.629 56.976-58.629v-18.992h-73.491c3.303-4.955 5.78-9.083 8.257-14.038l-21.47-8.257s-17.34 37.158-51.196 63.582l18.167 14.038s16.515-14.863 32.204-34.681h62.757c-8.258 13.212-20.644 24.772-33.856 33.855l-28.075-23.12-14.864 14.863 23.121 19.818c-28.075 15.689-55.325 22.295-55.325 22.295l14.038 18.166c19.818-7.431 35.507-14.037 48.719-20.643-3.303 5.78-12.386 19.818-28.901 34.681-9.91 9.083-23.121 18.992-38.81 27.25l16.515 16.515s33.03-17.34 57.802-46.242h47.068c-4.955 22.295-18.993 37.984-36.333 49.545l-25.598-24.773-15.69 13.212s14.038 13.212 21.47 21.47c-33.856 14.038-70.189 14.863-70.189 14.863l9.91 18.993c46.241-3.303 76.794-15.69 98.263-32.205 36.333-27.25 44.59-61.105 44.59-61.105v-19.818l-58.628-.826zm99.09-95.787h97.439v21.47H793.58zm-12.386 171.756 5.78 17.34s58.629-17.34 80.924-19.817c3.303 4.129 4.128 5.78 4.128 5.78l22.296-8.257c-4.955-11.56-27.25-60.28-27.25-60.28l-20.644 9.083c5.78 11.56 11.56 25.598 15.69 36.333-9.91 2.477-37.16 8.258-50.371 13.212 0 0 6.606-10.735 18.166-42.939 9.91-26.424 11.56-34.681 14.864-39.636h52.848V693.63H782.02v21.47h37.159c-1.652 6.605-8.258 31.378-18.167 54.499-5.78 13.212-11.56 26.424-19.818 35.507z" fill="#0080CB"/><path d="m943.867 716.75.825-35.507h38.81l-4.954 117.256c0 14.864-14.038 14.038-14.038 14.038h-27.25l4.13 23.12h25.598c33.03 0 34.681-33.855 34.681-33.855l4.955-142.854h-61.106l.826-47.068H921.57v47.893h-29.727v21.47h30.553c0 16.515 0 33.856-1.651 45.416-2.478 27.25-6.606 37.984-6.606 37.984-11.56 44.59-47.068 64.409-47.068 64.409l17.34 16.515c62.758-39.636 59.455-128.817 59.455-128.817zm-689.5 213.043h18.166v91.658h-18.167zm0-37.158h18.166v20.643h-18.167zm600.319 37.158h18.166v91.658h-18.166zm38.81-47.067h18.166v138.725h-18.166zm-38.81 9.909h18.166v20.643h-18.166zm-640.781 35.507s-21.47-5.78-36.333 10.734v-56.15h-18.167v138.725h18.167v-62.757c3.303-5.78 12.386-18.166 29.727-14.863 0 0 9.909 1.651 9.909 17.34v60.28H236.2v-59.454s1.651-27.25-22.295-33.855zm132.12 0s-22.296-5.78-37.16 11.56l-2.476-10.735H292.35v92.484h17.34v-61.93c3.304-5.781 13.213-18.167 29.727-15.69 0 0 9.91 1.651 9.91 17.34v60.28h18.992v-59.454s2.477-27.25-22.296-33.855zm88.355 1.651c-22.296-8.257-45.417 2.477-45.417 2.477v16.515s48.72-21.469 48.72 16.515v.826s-26.424-8.257-41.288.826c0 0-23.12 12.386-12.386 37.984 0 0 8.257 18.993 28.901 18.167 7.432 0 15.69-3.303 25.598-9.91l1.652 7.433h15.69v-58.629c0 .826 1.65-23.946-21.47-32.204zm-22.296 77.62s-14.863-.825-13.212-15.689c2.478-15.689 21.47-14.037 37.16-9.083v15.69h.825s-8.258 9.083-24.773 9.083zm161.847-19.817-39.636-94.136h-24.772v127.991h18.166v-97.438l41.288 97.438h9.083l41.287-96.612v96.612h18.993v-127.99h-24.773zm124.688-60.28c-26.424 0-47.893 21.47-47.893 47.893 0 26.424 21.47 47.894 47.893 47.894 26.424 0 47.894-21.47 47.894-47.894.825-26.424-21.47-47.893-47.894-47.893zm0 79.272c-17.34 0-32.204-14.038-32.204-32.204 0-17.341 14.038-32.205 32.204-32.205 17.341 0 32.204 14.038 32.204 32.205s-14.037 32.204-32.204 32.204zm118.908-75.143c-23.12-11.56-39.636 4.954-39.636 4.954v-52.848H758.9v137.9h14.038l2.477-8.257c8.257 9.909 23.12 10.735 23.12 10.735 12.387 0 22.296-5.78 28.902-13.212 7.432-8.258 12.386-21.47 12.386-26.424 2.478-14.038 2.478-41.288-22.295-52.848zm-17.34 75.969c-16.516 0-22.296-10.735-22.296-10.735v-44.59s8.258-9.084 22.295-9.084c14.038 0 19.818 10.735 22.296 26.424.825 16.515-3.303 37.985-22.296 37.985zm166.8-80.098c-10.734 0-19.817 4.129-26.423 9.909-9.91 8.257-13.212 21.47-13.212 21.47-8.258 32.204 6.606 49.544 6.606 49.544 7.431 9.91 21.47 14.864 33.03 15.69 19.818.825 33.855-5.78 33.855-5.78v-15.69c-57.802 19.818-57.802-21.47-57.802-21.47h61.931c.826-19.817-3.303-32.204-9.083-40.461-10.735-14.038-28.901-13.212-28.901-13.212zm-22.295 37.159s4.13-21.47 22.296-21.47 18.992 21.47 18.992 21.47h-41.288zM82.611 908.324c18.166 0 33.855 9.909 42.113 24.772h19.818c-9.91-24.772-33.856-42.113-61.931-42.113-36.333 0-66.06 29.727-66.06 66.06s29.727 66.06 66.06 66.06c28.075 0 52.848-18.167 61.93-42.94H125.55c-8.258 14.864-23.947 25.6-42.94 25.6-27.25 0-48.719-21.47-48.719-48.72s21.47-48.72 48.72-48.72z" fill="#0080CB"/><path d="M401.35 318.74c33.855 29.726 56.976 18.991 71.84 8.257 14.863-10.735 105.696-92.484 124.688-110.65 18.992-17.342 41.287-.827 41.287-.827 56.977 47.068 106.522 110.65 106.522 110.65s4.129-10.734 6.606-14.863c1.651-3.303-.826-5.78-.826-5.78-45.416-61.105-127.99-133.771-127.99-133.771-38.811-34.682-74.318 0-74.318 0s-93.31 84.226-115.605 104.87-43.765 2.477-43.765 2.477c-56.15-44.59-106.521-110.65-106.521-110.65s-4.13 9.909-6.606 14.863c-1.652 4.129.825 6.606.825 6.606 27.25 41.288 95.787 105.696 123.863 128.817z" fill="#9CC715"/><path d="M332.813 179.188c6.605-5.78 95.786-91.659 129.642-115.605 19.818-14.038 40.462-23.121 63.583-23.947 17.34-.826 36.333.826 56.15 9.909 21.47 9.909 54.5 36.333 85.879 68.537 22.295 22.295 43.764 47.894 61.93 71.84 12.387 16.515 23.947 33.03 33.03 47.068 0 0 0-19.818-9.083-37.159 0 0-36.333-69.363-107.347-133.771C639.991 59.454 578.886 0 520.257.826c0 0-54.499-3.303-104.87 37.984-7.431 5.78-94.96 80.098-122.21 109.825l28.9 31.378s3.304 4.955 10.736-.826z" fill="#0080CB"/><path d="M636.688 117.256s-33.856-35.507-76.795-44.59c0 0-35.507-8.258-69.362 18.166-16.515 13.212-52.848 46.242-82.575 75.144-30.553 26.423-52.023 49.544-52.023 49.544l33.03 31.379s7.432 5.78 16.515-2.477c0 0 31.379-30.553 58.629-55.326 25.598-23.12 51.196-47.067 60.28-53.673 0 0 41.287-42.113 94.135-.826 0 0 71.84 55.325 142.028 151.112l2.478-11.56s2.477-9.084-3.303-18.167c0 0-55.326-80.923-123.037-138.726zM612.741 456.64c6.606-5.78 94.136-80.923 122.211-109.824l-28.901-31.379s-3.303-4.954-10.735.826c-6.606 5.78-95.787 91.658-129.642 115.605-19.818 14.037-40.462 23.12-63.583 23.946-17.34.826-36.333-.825-56.15-9.909-21.47-9.909-54.5-36.333-85.879-68.537-22.295-22.295-43.764-47.893-61.931-71.84-12.386-16.515-23.947-33.03-33.03-47.068 0 0 0 19.818 9.083 37.16 0 0 36.333 69.362 107.348 133.77 6.606 6.606 67.711 66.06 126.34 65.235 0 0 54.499 3.303 104.87-37.985z" fill="#0080CB"/><path d="M391.44 378.193s33.856 35.507 76.795 44.59c0 0 35.508 8.258 69.363-18.166 16.515-13.212 52.848-46.242 82.575-75.143 29.727-26.424 52.022-49.545 52.022-49.545l-33.03-31.379s-7.431-5.78-16.515 2.478c0 0-31.378 30.552-58.628 55.325-25.598 23.12-51.196 47.068-60.28 53.673 0 0-41.287 42.114-94.135.826 0 0-71.84-55.325-142.029-151.112l-2.477 11.56s-2.477 9.084 3.303 18.167c0 0 55.325 80.924 123.037 138.726z" fill="#0080CB"/></svg>